<svg xmlns="http://www.w3.org/2000/svg" width="763.5" height="766.1" viewBox="0 0 764 766" fill="currentColor">
<pattern id="italian-pattern" width="800" height="800" patternUnits="userSpaceOnUse">
  <path d="m551 29 1 1h1l-1-1h-1Zm-2 4v2l-2 1h-1v2h-1v1l-1 1-1 1v1l-3 4h-1v-1 3l-1 1h-1l2 1h2v2l-1 1 2-3v-1h-1l-1-1 2-1c1 1 1 0 0 0v-3l2-2c0 1 0 1 0 0l1-2 2-2 2-2c2-2 2-3 1-3h-1Zm7-6h1-1Zm4-2v-1 1Zm1-1h1l2-1h1l2-2h2l1-1 2-1 4-1 1-1 5-1c0-1-6 0-8 2h-2l-2 1-8 4-1 1Zm-2 4h1-1Zm-7 7h1v-1h-1v1Z"/>
  <path d="M663 178h1v-1h-1v1Zm-4 5h2l1 1-1-1-1-1-1 1Zm6-5 1 1 1-2-2 1Zm7-5 1-1h-1v1Zm-20 18 1 1v-1h-1Zm4-2 1 1h1l-1-1-1-1v1Zm1-2 2 2 1-1 1-2-2 1c0 1 0 1 0 0h-2Zm8-6 1-1-1 1Zm-13 12h1l-1-1v1Zm10-10 1 1v-1h-1Zm-12 12-1 2 2-1v-2l-1 1Zm13-11h1l1-1-2 1Zm-9 8v3l1 1v1l2-2h-1v1-2l-1-3-1 1Zm-5 7h-1v2l1-1 1-1v-1c-1 0-2 0-1 1Zm7-7h1v-1h-1v1Zm7-6-1 1v1l1-1 1-1v-1h-1v1Zm-11 10 1-1-1 1Zm6-5h1v-1l-1 1Z"/>
  </pattern>
</svg>
